# xmcd
#
# Track frame offsets:
#	150
#	8702
#	27535
#	46575
#	55350
#	70845
#	81712
#	94500
#	109952
#	131820
#	141117
#	146780
#	160602
#	171572
#	186587
#	201760
#	213050
#
# Disc length: 2966 seconds
#
# Revision: 1
# Processed by: cddbd v1.5.1PL0 Copyright (c) Steve Scherf et al.
# Submitted via: CDex 1.50Beta5
#
DISCID=fd0b9411
DTITLE=宮下富実夫 - 火の鳥〈鳳凰編〉
DYEAR=1999
DGENRE=
TTITLE0=宮下富実夫/プロローグ
TTITLE1=宮下富実夫/茜丸の夢
TTITLE2=宮下富実夫/我王と速魚
TTITLE3=宮下富実夫/やすらぎ
TTITLE4=宮下富実夫/速魚の死
TTITLE5=宮下富実夫/茜丸とブチpartI
TTITLE6=宮下富実夫/彷徨
TTITLE7=宮下富実夫/茜丸とブチpartII
TTITLE8=渡辺典子/火の鳥
TTITLE9=宮下富実夫/大仏のなみだ
TTITLE10=宮下富実夫/平・城・京
TTITLE11=宮下富実夫/宿命
TTITLE12=宮下富実夫/火の鳥のテーマ
TTITLE13=宮下富実夫/鳳凰の像
TTITLE14=宮下富実夫/悲劇
TTITLE15=宮下富実夫/茜丸の死
TTITLE16=宮下富実夫/エピローグ
EXTD=
EXTT0=
EXTT1=
EXTT2=
EXTT3=
EXTT4=
EXTT5=
EXTT6=
EXTT7=
EXTT8=
EXTT9=
EXTT10=
EXTT11=
EXTT12=
EXTT13=
EXTT14=
EXTT15=
EXTT16=
PLAYORDER=
